<svg width="120" height="28" viewBox="0 0 120 28" fill="none" xmlns="http://www.w3.org/2000/svg">
<mask id="mask0_66_9" style="mask-type:luminance" maskUnits="userSpaceOnUse" x="2" y="5" width="116" height="20">
<path d="M2.18506 5.00139H117.835V24.6251H2.18506V5.00139Z" fill="white"/>
</mask>
<g mask="url(#mask0_66_9)">
<mask id="mask1_66_9" style="mask-type:luminance" maskUnits="userSpaceOnUse" x="2" y="5" width="116" height="20">
<path d="M2.18506 24.6251H117.835V5.00139H2.18506V24.6251Z" fill="white"/>
</mask>
<g mask="url(#mask1_66_9)">
<path d="M47.5371 7.14918C47.5371 6.68309 47.7223 6.2361 48.0518 5.90652C48.3814 5.57695 48.8285 5.3918 49.2945 5.3918C49.7606 5.3918 50.2076 5.57695 50.5372 5.90652C50.8667 6.2361 51.0519 6.68309 51.0519 7.14918C51.0349 7.60392 50.8423 8.03438 50.5146 8.35009C50.1869 8.6658 49.7496 8.84219 49.2945 8.84219C48.8395 8.84219 48.4021 8.6658 48.0744 8.35009C47.7467 8.03438 47.5541 7.60392 47.5371 7.14918Z" fill="white" fill-opacity="0.4"/>
<path d="M75.2646 18.8696C75.2646 17.8942 76.0503 17.1073 77.0183 17.1073C77.3672 17.1056 77.7088 17.2075 77.9997 17.4001C78.2906 17.5927 78.5178 17.8674 78.6525 18.1892C78.7872 18.5111 78.8234 18.8657 78.7564 19.2081C78.6893 19.5505 78.5222 19.8653 78.2761 20.1126C78.0299 20.36 77.716 20.5286 77.3739 20.5973C77.0318 20.666 76.677 20.6316 76.3545 20.4985C76.032 20.3654 75.7563 20.1395 75.5622 19.8495C75.3682 19.5595 75.2647 19.2185 75.2646 18.8696Z" fill="white" fill-opacity="0.4"/>
<path d="M18.7062 18.1071C17.1935 18.1071 16.1411 16.9054 16.1411 15.1871C16.1411 13.4689 17.1935 12.2696 18.7074 12.2696C20.2286 12.2696 21.292 13.4689 21.292 15.1871C21.292 16.9323 20.2518 18.1071 18.7062 18.1071ZM18.7062 9.70326C15.5047 9.70326 13.1807 12.0101 13.1807 15.1859C13.1807 18.3617 15.5059 20.6686 18.7062 20.6686C21.9211 20.6686 24.2537 18.3629 24.2537 15.1859C24.2537 12.0089 21.9211 9.70081 18.7074 9.70081M44.1442 15.46C44.0328 15.2445 43.8919 15.0456 43.7256 14.8689L43.6278 14.7674L43.7305 14.6695C43.892 14.4981 44.0394 14.3139 44.1711 14.1188L46.9858 9.91865H43.5543L41.431 13.2046C41.3111 13.3808 41.0688 13.4689 40.7053 13.4689H40.2219V7.25687C40.2219 6.01471 39.4472 5.84582 38.6114 5.84582H37.1795L37.1832 20.507H40.2231V16.1087H40.5083C40.8546 16.1087 41.0896 16.149 41.1985 16.3375L42.8751 19.5023C43.3439 20.3614 43.8101 20.5058 44.6888 20.5058H47.0177L45.2823 17.6372L44.132 15.4588M58.8874 9.67511C57.3405 9.67511 56.3541 10.3629 55.8009 10.9442L55.6174 11.1302L55.5513 10.8769C55.3897 10.2528 54.8415 9.91253 54.0179 9.91253H52.6558L52.6643 20.5021H55.6835V15.6216C55.6835 15.1443 55.7447 14.7307 55.872 14.3525C56.2073 13.2082 57.1447 12.4972 58.3159 12.4972C59.2582 12.4972 59.6253 12.9953 59.6253 14.2803V18.894C59.6253 19.9906 60.1332 20.5033 61.231 20.5033H62.6677L62.6629 13.7675C62.6629 11.0923 61.357 9.67756 58.8861 9.67756M49.3405 9.91743H47.9086L47.9184 20.507H49.4445L49.4984 20.5095L50.2106 20.507H50.9179V20.5033H50.9229L50.929 11.5267C50.929 10.4437 50.4113 9.91743 49.3405 9.91743ZM30.5612 18.1059C29.0486 18.1059 27.9949 16.9041 27.9949 15.1859C27.9949 13.4677 29.0473 12.2684 30.5624 12.2684C32.0775 12.2684 33.1471 13.4677 33.1471 15.1859C33.1471 16.9311 32.1056 18.1059 30.5612 18.1059ZM30.5612 9.70204C27.3573 9.70204 25.032 12.0089 25.032 15.1847C25.032 18.3605 27.3573 20.6673 30.5637 20.6673C33.77 20.6673 36.1111 18.3617 36.1111 15.1847C36.1111 12.0077 33.7859 9.69959 30.5637 9.69959" fill="white" fill-opacity="0.4"/>
</g>
</g>
<mask id="mask2_66_9" style="mask-type:luminance" maskUnits="userSpaceOnUse" x="2" y="5" width="116" height="20">
<path d="M2.18506 5.00139H117.835V24.6251H2.18506V5.00139Z" fill="white"/>
</mask>
<g mask="url(#mask2_66_9)">
<mask id="mask3_66_9" style="mask-type:luminance" maskUnits="userSpaceOnUse" x="2" y="5" width="116" height="20">
<path d="M2.18506 5.38812H117.81V24.5994H2.18506V5.38812Z" fill="white"/>
</mask>
<g mask="url(#mask3_66_9)">
<mask id="mask4_66_9" style="mask-type:luminance" maskUnits="userSpaceOnUse" x="2" y="5" width="116" height="20">
<path d="M2.18506 24.6251H117.835V5.00139H2.18506V24.6251Z" fill="white"/>
</mask>
<g mask="url(#mask4_66_9)">
<path d="M95.2618 18.1071C93.7492 18.1071 92.6942 16.9054 92.6942 15.1871C92.6942 13.4689 93.7492 12.2696 95.2618 12.2696C96.7817 12.2696 97.8477 13.4689 97.8477 15.1871C97.8477 16.9323 96.8074 18.1071 95.2618 18.1071ZM95.2618 9.70326C92.0579 9.70326 89.7339 12.0101 89.7339 15.1859C89.7339 18.3617 92.0591 20.6686 95.2618 20.6686C98.473 20.6686 100.809 18.3629 100.809 15.1859C100.809 12.0089 98.4841 9.70081 95.2618 9.70081" fill="white" fill-opacity="0.4"/>
<path d="M69.032 17.6409C67.3798 17.6409 66.7924 16.2017 66.7924 14.8506C66.7924 14.2558 66.9429 12.3173 68.8729 12.3173C69.8311 12.3173 71.1075 12.5914 71.1075 14.9485C71.1075 17.1721 69.9779 17.6384 69.0307 17.6384L69.032 17.6409ZM72.6764 9.89172C72.1037 9.89172 71.6631 10.1206 71.4526 10.5379L71.3694 10.6994L71.23 10.5771C70.7429 10.1561 69.8691 9.65553 68.4519 9.65553C65.6286 9.65553 63.728 11.7764 63.728 14.9301C63.728 18.0839 65.6946 20.2855 68.5081 20.2855C69.4688 20.2855 70.2288 20.0603 70.8309 19.6051L71.0757 19.4301V19.7238C71.0757 21.1385 70.1615 21.9193 68.5033 21.9193C67.8097 21.911 67.1227 21.7843 66.4718 21.5448C65.833 21.3514 65.456 21.5118 65.199 22.1543L64.9592 22.7466L64.6202 23.613L64.8282 23.7232C65.8905 24.2861 67.2721 24.6227 68.5204 24.6227C71.0904 24.6227 74.0936 23.3071 74.0936 19.6051L74.1059 9.89172H72.6764Z" fill="white" fill-opacity="0.4"/>
</g>
</g>
</g>
<mask id="mask5_66_9" style="mask-type:luminance" maskUnits="userSpaceOnUse" x="2" y="5" width="116" height="20">
<path d="M2.18506 5.00139H117.835V24.6251H2.18506V5.00139Z" fill="white"/>
</mask>
<g mask="url(#mask5_66_9)">
<mask id="mask6_66_9" style="mask-type:luminance" maskUnits="userSpaceOnUse" x="2" y="5" width="116" height="20">
<path d="M2.18506 24.6251H117.835V5.00139H2.18506V24.6251Z" fill="white"/>
</mask>
<g mask="url(#mask6_66_9)">
<path d="M7.45332 17.986L4.99592 17.9835V15.0464C4.99592 14.4173 5.24068 14.0918 5.77671 14.0159H7.45332C8.64897 14.0159 9.41145 14.7698 9.41145 15.9899C9.41023 17.2431 8.65632 17.9847 7.45332 17.9847V17.986ZM4.99592 10.0606V9.28715C4.99592 8.61039 5.2823 8.28852 5.91011 8.24691H7.1682C8.24515 8.24691 8.88149 8.89186 8.88149 9.97248C8.88149 10.7949 8.43845 11.7556 7.19629 11.7556H4.98494L4.99592 10.0606ZM10.5912 12.9928L10.1469 12.7432L10.5349 12.4128C10.9877 12.0248 11.7416 11.1522 11.7416 9.64695C11.7416 7.3413 9.95477 5.85315 7.18897 5.85315H3.6718C3.27603 5.86758 2.90094 6.03373 2.62435 6.31715C2.34775 6.60058 2.1908 6.97957 2.18604 7.37557V20.4581H7.25261C10.328 20.4581 12.3131 18.7839 12.3131 16.1906C12.3131 14.7955 11.6718 13.6011 10.5936 12.9941" fill="white" fill-opacity="0.4"/>
<path d="M114.294 9.71549C113.671 9.71778 113.056 9.86007 112.495 10.1318C111.934 10.4036 111.442 10.7979 111.053 11.2856L110.836 11.5622L110.664 11.2526C110.104 10.2332 109.142 9.71549 107.804 9.71549C106.401 9.71549 105.459 10.4987 105.023 10.9638L104.736 11.2734L104.614 10.8659C104.455 10.2784 103.932 9.95658 103.142 9.95658H101.872L101.86 20.5058H104.742V15.8492C104.744 15.4334 104.795 15.0192 104.895 14.6156C105.171 13.4897 105.927 12.2781 107.199 12.4005C107.982 12.4764 108.366 13.0822 108.366 14.2521V20.5058H111.269V15.8492C111.258 15.4187 111.313 14.9891 111.432 14.5752C111.676 13.5007 112.455 12.3993 113.681 12.3993C114.57 12.3993 114.897 12.9011 114.897 14.2521V18.9638C114.897 20.0285 115.372 20.5058 116.439 20.5058H117.795L117.798 13.7712C117.798 11.0788 116.613 9.71549 114.283 9.71549M88.0521 16.8429C88.0435 16.8552 86.8038 18.161 85.17 18.161C83.6819 18.161 82.179 17.248 82.179 15.2116C82.179 13.4518 83.3441 12.2218 85.0134 12.2218C85.5543 12.2218 86.1711 12.4152 86.2677 12.742L86.28 12.797C86.3417 13.022 86.4758 13.2203 86.6617 13.3613C86.8475 13.5022 87.0748 13.5779 87.308 13.5766L88.899 13.579V12.1986C88.899 10.3776 86.5823 9.71671 85.0244 9.71671C81.6907 9.71671 79.2725 12.037 79.2725 15.2336C79.2725 18.4302 81.6638 20.7457 84.9632 20.7457C87.8244 20.7457 89.3689 18.8647 89.3958 18.8463L89.479 18.7435L88.2283 16.6692L88.063 16.8442" fill="white" fill-opacity="0.4"/>
</g>
</g>
</svg>
