<svg width="24" height="26" viewBox="0 0 24 26" fill="none" xmlns="http://www.w3.org/2000/svg">
<path d="M8.84516 21.1379L4.71949 21.1336V16.0149C4.71949 14.9212 5.12836 14.352 6.03034 14.222H8.84518C10.8526 14.222 12.1511 15.5352 12.1511 17.6607C12.1511 19.8438 10.8854 21.1358 8.84516 21.1379ZM4.71949 7.33164V5.98428C4.71949 4.80534 5.20026 4.24464 6.25429 4.17216H8.36645C10.1766 4.17216 11.2614 5.29567 11.2614 7.17815C11.2614 8.61079 10.5176 10.2843 8.4322 10.2843H4.71949V7.33164ZM14.1132 12.4397L13.3674 12.0048L14.0187 11.427C14.7769 10.7512 16.0467 9.23117 16.0467 6.60892C16.0467 2.59241 13.0448 0.00214082 8.39932 0.00214082H3.09838V0H2.49431C1.11772 0.0533034 0.0143802 1.2152 0 2.65212V25.4422H8.50411C13.6674 25.4422 17 22.5257 17 18.0082C17 15.5757 15.9234 13.4971 14.1132 12.4397Z" fill="white" fill-opacity="0.6"/>
<path d="M19 22.2613C19 20.5033 20.1181 19.0811 21.4956 19.0811C22.8767 19.0811 24 20.5033 24 22.2613C24 24.0171 22.8767 25.4416 21.4956 25.4416C20.1181 25.4416 19 24.0171 19 22.2613Z" fill="white" fill-opacity="0.6"/>
</svg>
