<svg width="31" height="31" viewBox="0 0 31 31" fill="none" xmlns="http://www.w3.org/2000/svg">
<g clip-path="url(#clip0_240_34)">
<path fill-rule="evenodd" clip-rule="evenodd" d="M6.15082 0H24.8464C28.2313 0 31 2.7687 31 6.15082V24.8464C31 28.2313 28.2313 31 24.8464 31H6.15082C2.7687 31 0 28.2313 0 24.8464V6.15082C0 2.7687 2.7687 0 6.15082 0Z" fill="#E0E0E0"/>
<g clip-path="url(#clip1_240_34)">
<path d="M20.5894 6.64209H11.2909C8.734 6.64209 6.6416 8.73449 6.6416 11.2914V20.5903C6.6416 23.1465 8.734 25.2396 11.2909 25.2396H20.5894C23.1463 25.2396 25.2387 23.1465 25.2387 20.5903V11.2914C25.2387 8.73449 23.1463 6.64209 20.5894 6.64209ZM23.6888 20.5903C23.6888 22.2989 22.299 23.6898 20.5894 23.6898H11.2909C9.58203 23.6898 8.19143 22.2989 8.19143 20.5903V11.2914C8.19143 9.5823 9.58203 8.19192 11.2909 8.19192H20.5894C22.299 8.19192 23.6888 9.5823 23.6888 11.2914V20.5903Z" fill="#070707"/>
<path d="M20.9777 12.0661C21.6197 12.0661 22.1401 11.5457 22.1401 10.9038C22.1401 10.2618 21.6197 9.74146 20.9777 9.74146C20.3358 9.74146 19.8154 10.2618 19.8154 10.9038C19.8154 11.5457 20.3358 12.0661 20.9777 12.0661Z" fill="#070707"/>
<path d="M15.9403 11.2913C13.372 11.2913 11.291 13.3725 11.291 15.9405C11.291 18.5076 13.372 20.5902 15.9403 20.5902C18.5078 20.5902 20.5895 18.5076 20.5895 15.9405C20.5895 13.3725 18.5078 11.2913 15.9403 11.2913ZM15.9403 19.0404C14.2286 19.0404 12.8408 17.6526 12.8408 15.9405C12.8408 14.2284 14.2286 12.8411 15.9403 12.8411C17.6519 12.8411 19.0397 14.2284 19.0397 15.9405C19.0397 17.6526 17.6519 19.0404 15.9403 19.0404Z" fill="#070707"/>
</g>
</g>
<defs>
<clipPath id="clip0_240_34">
<rect width="31" height="31" rx="15.5" fill="white"/>
</clipPath>
<clipPath id="clip1_240_34">
<rect width="18.5975" height="18.5975" fill="white" transform="translate(6.6416 6.64209)"/>
</clipPath>
</defs>
</svg>
